<?xml version="1.0" standalone="no"?>
<!DOCTYPE svg PUBLIC "-//W3C//DTD SVG 20010904//EN"
 "http://www.w3.org/TR/2001/REC-SVG-20010904/DTD/svg10.dtd">
<svg version="1.0" xmlns="http://www.w3.org/2000/svg"
 width="320.000000pt" height="320.000000pt" viewBox="0 0 320.000000 320.000000"
 preserveAspectRatio="xMidYMid meet">

<g transform="translate(0.000000,320.000000) scale(0.100000,-0.100000)"
fill="#000000" stroke="none">
<path d="M200 1600 l0 -960 1402 0 1401 0 -6 427 c-4 236 -7 668 -7 961 l0
532 -1395 0 -1395 0 0 -960z m2715 250 l0 -635 -1322 -3 -1323 -2 0 640 0 640
1323 -2 1322 -3 0 -635z m-1805 -910 c0 -60 -4 -100 -10 -100 -11 0 -14 182
-3 193 12 13 13 7 13 -93z m231 13 c79 -77 105 -113 82 -113 -13 0 -183 174
-183 187 0 7 3 13 6 13 4 0 46 -39 95 -87z m99 40 c0 -30 -10 -54 -21 -47 -10
6 -12 77 -2 87 9 10 23 -13 23 -40z m559 -42 c50 -87 59 -111 42 -111 -13 0
-113 178 -106 190 3 5 8 10 10 10 2 0 26 -40 54 -89z m199 -16 c-2 -60 -7 -90
-15 -93 -10 -3 -13 20 -13 91 0 51 3 97 7 101 16 16 24 -17 21 -99z m112 87
c27 -22 30 -65 6 -91 -21 -23 -20 -34 4 -56 20 -18 26 -35 13 -35 -12 0 -83
68 -83 78 0 6 11 13 24 16 46 11 41 76 -5 76 -11 0 -19 7 -19 15 0 21 33 19
60 -3z m170 -88 c0 -56 -4 -94 -10 -94 -6 0 -10 40 -10 101 0 64 4 98 10 94 6
-3 10 -48 10 -101z m111 91 c33 -17 49 -49 49 -96 0 -39 -48 -89 -84 -89 -36
0 -32 13 9 33 67 32 66 105 0 133 -20 8 -33 19 -30 24 9 14 21 12 56 -5z
m-2021 -1 c0 -3 -11 -19 -25 -36 -14 -16 -25 -41 -25 -54 0 -14 11 -36 25 -50
28 -28 30 -34 12 -34 -21 0 -55 42 -57 70 -4 44 0 57 21 84 18 23 49 36 49 20z
m86 -8 c22 -17 11 -35 -13 -20 -19 12 -29 34 -16 34 5 0 18 -6 29 -14z m194 6
c0 -5 -11 -19 -25 -32 -15 -14 -25 -35 -25 -52 0 -18 10 -38 25 -52 28 -26 31
-36 12 -36 -19 0 -55 41 -57 65 -4 41 1 63 21 89 19 25 49 36 49 18z m95 -17
c33 -32 35 -98 3 -132 -20 -21 -48 -31 -48 -17 0 4 11 17 25 30 14 13 25 34
25 48 0 13 -11 38 -25 54 -14 17 -25 33 -25 36 0 14 22 4 45 -19z m685 18 c0
-5 -12 -19 -25 -32 -34 -32 -33 -76 2 -113 25 -26 25 -28 6 -28 -57 0 -80 105
-34 154 23 25 51 35 51 19z m80 -8 c18 -22 5 -30 -19 -13 -12 8 -18 18 -14 21
10 11 19 8 33 -8z m195 -86 c-5 -15 -2 -22 14 -26 30 -8 26 -23 -6 -23 -15 0
-37 -10 -50 -22 -35 -33 -38 -15 -6 41 28 51 61 71 48 30z m-645 -44 c0 -25
-4 -45 -10 -45 -5 0 -10 20 -10 45 0 25 5 45 10 45 6 0 10 -20 10 -45z m-601
-21 c-13 -16 -39 -19 -39 -4 0 12 32 30 43 23 4 -3 3 -11 -4 -19z m1059 9 c-2
-10 -14 -20 -28 -22 -25 -3 -25 -3 -6 18 23 26 39 27 34 4z"/>
<path d="M1420 2248 c-67 -33 -146 -117 -183 -195 -30 -64 -32 -75 -32 -178 0
-103 2 -114 32 -178 57 -119 197 -234 260 -212 15 6 34 22 42 36 20 35 1 83
-40 99 -39 16 -106 85 -130 133 -62 121 -14 281 107 359 58 37 77 67 68 104
-6 22 -48 54 -71 54 -4 0 -28 -10 -53 -22z"/>
<path d="M1727 2259 c-27 -16 -40 -58 -27 -88 11 -27 145 -121 172 -121 8 0
27 9 42 21 55 43 22 106 -88 169 -55 32 -71 35 -99 19z"/>
<path d="M1843 1687 c-136 -78 -170 -117 -142 -166 24 -43 62 -50 117 -21 66
35 122 91 122 122 0 51 -56 88 -97 65z"/>
</g>
</svg>
